<svg width="50" height="50" viewBox="0 0 50 50" fill="none" xmlns="http://www.w3.org/2000/svg">
<path d="M8.1059 9.5C8.77257 7.66667 13.0059 4 24.6059 4C36.2059 4 40.4392 7.66667 41.1059 9.5C41.6059 12.5 37.106 16.5 24.6059 16.5C9.57259 16.5 7.43925 11.3333 8.1059 9.5Z" fill="#FFBA44"/>
<path d="M8.1059 21C8.93925 22.8333 13.406 26 24.606 26C35.806 26 40.2726 22.8333 41.1059 21V14.5C39.4393 15.8333 33.806 18.5 24.606 18.5C15.406 18.5 9.77257 15.8333 8.1059 14.5V21Z" fill="#FFBA44"/>
<path d="M8.10596 31C8.93931 32.8333 13.406 36 24.606 36C35.806 36 40.2726 32.8333 41.106 31V24.5C39.4393 25.8333 33.806 28.5 24.606 28.5C15.406 28.5 9.77262 25.8333 8.10596 24.5V31Z" fill="#FFBA44"/>
<path d="M8.10596 41C8.93931 42.8333 13.406 46 24.606 46C35.806 46 40.2726 42.8333 41.106 41V34.5C39.4393 35.8333 33.806 38.5 24.606 38.5C15.406 38.5 9.77262 35.8333 8.10596 34.5V41Z" fill="#FFBA44"/>
</svg>
