<svg width="50" height="50" viewBox="0 0 50 50" fill="none" xmlns="http://www.w3.org/2000/svg">
<path d="M25.2104 7.75977C24.5399 7.75977 24.0125 7.9974 23.6284 8.47266C23.2443 8.94792 23.0522 9.60384 23.0522 10.4404C23.0522 11.3161 23.2362 11.9785 23.604 12.4277C23.9751 12.877 24.5106 13.1016 25.2104 13.1016C25.5132 13.1016 25.8062 13.0723 26.0894 13.0137C26.3726 12.9518 26.6672 12.8737 26.9731 12.7793V13.7803C26.4132 13.9919 25.7785 14.0977 25.0688 14.0977C24.0239 14.0977 23.2215 13.7819 22.6616 13.1504C22.1017 12.5156 21.8218 11.609 21.8218 10.4307C21.8218 9.68848 21.9569 9.03906 22.2271 8.48242C22.5005 7.92578 22.8944 7.49935 23.4087 7.20312C23.923 6.9069 24.5269 6.75879 25.2202 6.75879C25.9494 6.75879 26.6232 6.91178 27.2417 7.21777L26.8218 8.18945C26.5809 8.07552 26.3254 7.97624 26.0552 7.8916C25.7882 7.80371 25.5067 7.75977 25.2104 7.75977Z" fill="#FFBA44"/>
<rect x="19.731" y="4.5" width="9.76923" height="12.0769" stroke="#FFBA44"/>
<path d="M37.979 10.3623C37.979 11.5407 37.6519 12.4424 36.9976 13.0674C36.3433 13.6891 35.4009 14 34.1704 14H32.1733V6.86133H34.3804C35.5164 6.86133 36.4002 7.16732 37.0317 7.7793C37.6632 8.39128 37.979 9.25228 37.979 10.3623ZM36.7485 10.4014C36.7485 8.69238 35.9494 7.83789 34.3511 7.83789H33.3403V13.0186H34.1704C35.8892 13.0186 36.7485 12.1462 36.7485 10.4014Z" fill="#FFBA44"/>
<rect x="29.731" y="4.5" width="9.76923" height="12.0769" stroke="#FFBA44"/>
<path d="M46.2114 14H42.1733V6.86133H46.2114V7.84766H43.3403V9.79102H46.0308V10.7676H43.3403V13.0088H46.2114V14Z" fill="#FFBA44"/>
<rect x="39.731" y="4.5" width="9.76923" height="12.0769" stroke="#FFBA44"/>
<path d="M7.37109 44L6.6582 42.0176H3.92871L3.23047 44H2L4.6709 36.832H5.94043L8.61133 44H7.37109ZM6.35059 41.0117L5.68164 39.0684C5.63281 38.9382 5.56445 38.7331 5.47656 38.4531C5.39193 38.1732 5.33333 37.9681 5.30078 37.8379C5.21289 38.2383 5.08431 38.6761 4.91504 39.1514L4.27051 41.0117H6.35059Z" fill="#FFBA44"/>
<rect x="0.5" y="34.5" width="9.76923" height="12.0769" stroke="#FFBA44"/>
<path d="M12.9424 36.8613H15.0615C16.0446 36.8613 16.7542 37.0046 17.1904 37.291C17.6299 37.5775 17.8496 38.0299 17.8496 38.6484C17.8496 39.0651 17.7422 39.4118 17.5273 39.6885C17.3125 39.9652 17.0033 40.1393 16.5996 40.2109V40.2598C17.1009 40.3542 17.4688 40.5413 17.7031 40.8213C17.9408 41.098 18.0596 41.474 18.0596 41.9492C18.0596 42.5905 17.835 43.0934 17.3857 43.458C16.9398 43.8193 16.318 44 15.5205 44H12.9424V36.8613ZM14.1094 39.8105H15.2324C15.7207 39.8105 16.0771 39.734 16.3018 39.5811C16.5264 39.4248 16.6387 39.1611 16.6387 38.79C16.6387 38.4548 16.5166 38.2122 16.2725 38.0625C16.0316 37.9128 15.6475 37.8379 15.1201 37.8379H14.1094V39.8105ZM14.1094 40.7578V43.0186H15.3496C15.8379 43.0186 16.2057 42.9258 16.4531 42.7402C16.7038 42.5514 16.8291 42.2552 16.8291 41.8516C16.8291 41.4805 16.7021 41.2054 16.4482 41.0264C16.1943 40.8473 15.8086 40.7578 15.291 40.7578H14.1094Z" fill="#FFBA44"/>
<rect x="10.5" y="34.5" width="9.76923" height="12.0769" stroke="#FFBA44"/>
<path d="M25.9795 37.7598C25.3089 37.7598 24.7816 37.9974 24.3975 38.4727C24.0133 38.9479 23.8213 39.6038 23.8213 40.4404C23.8213 41.3161 24.0052 41.9785 24.373 42.4277C24.7441 42.877 25.2796 43.1016 25.9795 43.1016C26.2822 43.1016 26.5752 43.0723 26.8584 43.0137C27.1416 42.9518 27.4362 42.8737 27.7422 42.7793V43.7803C27.1823 43.9919 26.5475 44.0977 25.8379 44.0977C24.793 44.0977 23.9906 43.7819 23.4307 43.1504C22.8708 42.5156 22.5908 41.609 22.5908 40.4307C22.5908 39.6885 22.7259 39.0391 22.9961 38.4824C23.2695 37.9258 23.6634 37.4993 24.1777 37.2031C24.6921 36.9069 25.2959 36.7588 25.9893 36.7588C26.7184 36.7588 27.3923 36.9118 28.0107 37.2178L27.5908 38.1895C27.3499 38.0755 27.0944 37.9762 26.8242 37.8916C26.5573 37.8037 26.2757 37.7598 25.9795 37.7598Z" fill="#FFBA44"/>
<rect x="20.5" y="34.5" width="9.76923" height="12.0769" stroke="#FFBA44"/>
<path d="M7.37109 44L6.6582 42.0176H3.92871L3.23047 44H2L4.6709 36.832H5.94043L8.61133 44H7.37109ZM6.35059 41.0117L5.68164 39.0684C5.63281 38.9382 5.56445 38.7331 5.47656 38.4531C5.39193 38.1732 5.33333 37.9681 5.30078 37.8379C5.21289 38.2383 5.08431 38.6761 4.91504 39.1514L4.27051 41.0117H6.35059Z" fill="#FFBA44"/>
<rect x="0.5" y="34.5" width="9.76923" height="12.0769" stroke="#FFBA44"/>
<path d="M24.6154 16.6923C24.6154 22.4615 5.38481 24.7692 5.38481 33.6154M5.38481 33.6154L3.46158 32.0769M5.38481 33.6154L7.69235 32.0769" stroke="#FFBA44" stroke-linecap="round"/>
<path d="M34.7111 16.6923C34.7111 22.4615 15.4805 24.7692 15.4805 33.6154M15.4805 33.6154L13.5573 32.0769M15.4805 33.6154L17.788 32.0769" stroke="#FFBA44" stroke-linecap="round"/>
<path d="M44.7111 16.6923C44.7111 22.4615 25.4805 24.7692 25.4805 33.6154M25.4805 33.6154L23.5573 32.0769M25.4805 33.6154L27.788 32.0769" stroke="#FFBA44" stroke-linecap="round"/>
</svg>
