<svg width="50" height="50" viewBox="0 0 50 50" fill="none" xmlns="http://www.w3.org/2000/svg">
<path d="M27.6193 21.2301C23.7429 15.672 11.1446 16.5983 7.64295 29.4633C5.7273 36.5013 4.01736 38.1804 0 41.0721V43H4.31643C6.02603 42.0361 6.5699 40.2209 7.75279 37.905C12.1505 29.2949 16.9592 31.4203 16.9592 34.1995C15.5056 31.4203 12.1137 33.5174 14.0519 38.3682C15.3445 41.603 18.4869 43 20.7298 43L32.9262 43C34.9349 43 34.7238 41.5644 34.9346 41.1438C36.4346 38.152 39.4208 39.2994 39.4208 39.6799C37.123 39.0661 37.6491 41.6676 38.9523 43L50 43V41.0721C48.9957 41.0721 44.9783 39.1443 43.6595 37.2948C41.0179 33.5903 41.9569 29.277 45.2826 30.4955C45.2826 29.7401 40.9609 27.5779 38.7899 33.5174C36.5351 39.6864 32.2628 41.0722 29.5575 41.0721C26.3112 41.0722 21.7341 36.3147 20.7298 29.5676C19.3508 20.3037 22.7738 18.364 27.6193 21.2301Z" fill="#FFBA44"/>
</svg>
