<svg width="50" height="50" viewBox="0 0 50 50" fill="none" xmlns="http://www.w3.org/2000/svg">
<path d="M23.4527 9C22.7743 9 22.2243 9.54994 22.2243 10.2283V18.8265H28.7754V10.2283C28.7754 9.54994 28.2254 9 27.547 9H23.4527Z" fill="#FFBA44"/>
<path fill-rule="evenodd" clip-rule="evenodd" d="M43.2949 21.8626C43.1961 20.8298 42.3244 20.0549 41.2869 20.0549L9.71321 20.0549C8.67574 20.0549 7.80401 20.8298 7.70521 21.8626C7.52466 23.7499 7.27989 26.8014 7.28007 29.472C7.28007 32.2479 7.53612 34.8531 7.71757 36.3507C7.81446 37.1504 8.39406 37.797 9.17127 38.009L17.4895 40.2776C18.4511 40.5399 19.4634 40.0726 19.9776 39.2188C21.0727 37.4002 23.1459 34.5899 25.5001 34.5899C27.8543 34.5899 29.9274 37.4002 31.0225 39.2188C31.5367 40.0726 32.549 40.5398 33.5106 40.2776L41.8288 38.009C42.6061 37.797 43.1857 37.1504 43.2825 36.3507C43.464 34.8531 43.7201 32.2478 43.7201 29.4719C43.7202 26.8014 43.4755 23.7499 43.2949 21.8626ZM36.9642 27.8341C38.0948 27.8341 39.0114 26.9175 39.0114 25.7869C39.0114 24.6563 38.0948 23.7397 36.9642 23.7397C35.8336 23.7397 34.917 24.6563 34.917 25.7869C34.917 26.9175 35.8336 27.8341 36.9642 27.8341ZM32.8699 33.9757C34.0005 33.9757 34.9171 33.0591 34.9171 31.9285C34.9171 30.7979 34.0005 29.8813 32.8699 29.8813C31.7392 29.8813 30.8227 30.7979 30.8227 31.9285C30.8227 33.0591 31.7392 33.9757 32.8699 33.9757ZM15.2588 24.1181H16.2342C16.7728 24.1181 17.2095 24.5548 17.2095 25.0934V27.288H19.4041C19.9428 27.288 20.3795 27.7247 20.3795 28.2634V29.2387C20.3795 29.7774 19.9428 30.2141 19.4041 30.2141H17.2095V32.4087C17.2095 32.9473 16.7728 33.384 16.2342 33.384H15.2588C14.7201 33.384 14.2834 32.9473 14.2834 32.4087V30.2141H12.0889C11.5502 30.2141 11.1135 29.7774 11.1135 29.2387V28.2634C11.1135 27.7247 11.5502 27.288 12.0889 27.288H14.2834V25.0934C14.2834 24.5548 14.7201 24.1181 15.2588 24.1181Z" fill="#FFBA44"/>
<path d="M4.95449 23.7918C5.4182 23.2516 6.19533 23.6709 6.13225 24.3801C5.97087 26.1941 5.84723 28.1733 5.84735 29.9787C5.84735 31.2452 5.90629 32.4676 5.99588 33.594C6.05325 34.3153 5.25739 34.7354 4.80232 34.1729C3.67513 32.7796 3 31.0055 3 29.0737C3 27.0564 3.73616 25.2112 4.95449 23.7918Z" fill="#FFBA44"/>
<path d="M44.8678 24.3801C44.8047 23.6709 45.5818 23.2516 46.0455 23.7918C47.2638 25.2112 48 27.0564 48 29.0737C48 31.0055 47.3249 32.7796 46.1977 34.1729C45.7426 34.7354 44.9468 34.3153 45.0041 33.594C45.0937 32.4676 45.1527 31.2452 45.1527 29.9787C45.1528 28.1733 45.0291 26.1941 44.8678 24.3801Z" fill="#FFBA44"/>
</svg>
