<svg width="50" height="50" viewBox="0 0 50 50" fill="none" xmlns="http://www.w3.org/2000/svg">
<path d="M31.4743 34.0583C32.0658 34.3449 32.3119 35.0612 32.0241 35.6581L30.2271 39.3847C29.9393 39.9816 29.2265 40.2331 28.635 39.9465L27.0633 39.1848L26.2176 38.7749C25.6261 38.4883 25.38 37.772 25.6678 37.1751L27.4648 33.4484C27.7526 32.8515 28.4654 32.6 29.0569 32.8867L29.8387 33.2656L31.4743 34.0583Z" fill="#FFBA44"/>
<path d="M30.0793 23.5648C30.7011 23.3455 31.3792 23.6741 31.5939 24.2989L32.9344 28.1995C33.1492 28.8243 32.8192 29.5086 32.1974 29.728L29.986 30.5082L29.6563 30.6246C29.0345 30.8439 28.3564 30.5153 28.1417 29.8905L26.8011 25.9899C26.5864 25.3651 26.9164 24.6808 27.5382 24.4614L27.8605 24.3477L30.0793 23.5648Z" fill="#FFBA44"/>
<path d="M6.34375 31.9395C6.96551 31.7201 7.64361 32.0488 7.85832 32.6735L9.19886 36.5742C9.41358 37.1989 9.0836 37.8833 8.46183 38.1026L8.10988 38.2268L5.92068 38.9992C5.29891 39.2186 4.62082 38.89 4.4061 38.2652L3.06556 34.3646C2.85085 33.7398 3.18082 33.0555 3.80259 32.8361L5.99914 32.0611L6.34375 31.9395Z" fill="#FFBA44"/>
<path d="M25.5935 43.3251C25.8082 43.9499 25.4783 44.6342 24.8565 44.8536L20.9746 46.2232C20.3529 46.4426 19.6748 46.114 19.4601 45.4892L18.7306 43.3666L18.5825 42.9357C18.3678 42.311 18.6978 41.6267 19.3195 41.4073L23.2014 40.0376C23.8232 39.8183 24.5013 40.1469 24.716 40.7717L24.8591 41.1882L25.5935 43.3251Z" fill="#FFBA44"/>
<path d="M17.4559 19.6468C17.6706 20.2715 17.3407 20.9559 16.7189 21.1752L12.837 22.5449C12.2153 22.7643 11.5372 22.4356 11.3225 21.8109L11.1737 21.3779L10.4449 19.2574C10.2302 18.6326 10.5602 17.9483 11.1819 17.7289L15.0638 16.3593C15.6856 16.1399 16.3637 16.4686 16.5784 17.0933L17.312 19.2281L17.4559 19.6468Z" fill="#FFBA44"/>
<path d="M10.1359 23.041C10.7274 23.3277 10.9735 24.0439 10.6857 24.6409L8.88871 28.3675C8.60088 28.9644 7.88806 29.2159 7.29658 28.9293L6.32909 28.4604L4.87919 27.7577C4.28771 27.471 4.04155 26.7548 4.32938 26.1579L6.12636 22.4312C6.41419 21.8343 7.12701 21.5828 7.71849 21.8695L9.53692 22.7508L10.1359 23.041Z" fill="#FFBA44"/>
<path d="M15.0716 44.8116C14.7837 45.4085 14.0709 45.66 13.4794 45.3733L9.78665 43.5837C9.19517 43.297 8.94901 42.5808 9.23684 41.9839L10.0102 40.3801L10.4132 39.5443C10.701 38.9474 11.4138 38.6959 12.0053 38.9825L13.856 39.8795L15.6981 40.7722C16.2896 41.0589 16.5357 41.7751 16.2479 42.372L15.8437 43.2102L15.0716 44.8116Z" fill="#FFBA44"/>
<path d="M25.5838 23.011C25.2959 23.6079 24.5831 23.8594 23.9917 23.5727L22.1496 22.68L20.2989 21.7831C19.7074 21.4964 19.4612 20.7801 19.749 20.1832L20.1333 19.3864L20.9254 17.7437C21.2132 17.1468 21.926 16.8953 22.5175 17.1819L26.2103 18.9716C26.8018 19.2583 27.048 19.9745 26.7601 20.5714L25.9692 22.2117L25.5838 23.011Z" fill="#FFBA44"/>
<path d="M27.8605 24.3477C27.3229 23.5699 26.6902 22.8514 25.9692 22.2117L25.5838 23.011C25.2959 23.6079 24.5831 23.8594 23.9917 23.5727L22.1496 22.68L20.5026 26.0955C23.3504 27.4756 24.5356 30.9242 23.1498 33.7981C21.764 36.672 18.332 37.883 15.4842 36.5028L13.856 39.8795L15.6981 40.7722C16.2896 41.0589 16.5357 41.7751 16.2479 42.372L15.8437 43.2102C16.8058 43.3819 17.7749 43.4316 18.7306 43.3666L18.5825 42.9357C18.3678 42.311 18.6978 41.6267 19.3195 41.4073L23.2014 40.0376C23.8232 39.8183 24.5013 40.1469 24.716 40.7717L24.8591 41.1882C25.6642 40.6207 26.4062 39.9504 27.0633 39.1848L26.2176 38.7749C25.6261 38.4883 25.38 37.772 25.6678 37.1751L27.4648 33.4484C27.7526 32.8515 28.4654 32.6 29.0569 32.8867L29.8387 33.2656C29.9944 32.3455 30.0415 31.4206 29.986 30.5082L29.6563 30.6246C29.0345 30.8439 28.3564 30.5153 28.1417 29.8905L26.8011 25.9899C26.5864 25.3651 26.9164 24.6808 27.5382 24.4614L27.8605 24.3477Z" fill="#FFBA44"/>
<path d="M20.1333 19.3864C19.1931 19.2195 18.2464 19.1689 17.312 19.2281L17.4559 19.6468C17.6706 20.2715 17.3407 20.9559 16.7189 21.1752L12.837 22.5449C12.2153 22.7643 11.5372 22.4356 11.3225 21.8109L11.1737 21.3779C10.5929 21.7832 10.0447 22.2417 9.53692 22.7508L10.1359 23.041C10.7274 23.3277 10.9735 24.0439 10.6857 24.6409L8.88871 28.3675C8.60088 28.9644 7.88806 29.2159 7.29658 28.9293L6.32909 28.4604C6.03495 29.6558 5.92942 30.869 5.99914 32.0611L6.34375 31.9395C6.96551 31.7201 7.64361 32.0488 7.85832 32.6735L9.19886 36.5742C9.41358 37.1989 9.0836 37.8833 8.46183 38.1026L8.10988 38.2268C8.6492 39.0111 9.28492 39.7355 10.0102 40.3801L10.4132 39.5443C10.701 38.9474 11.4138 38.6959 12.0053 38.9825L13.856 39.8795L15.4842 36.5028C12.6364 35.1226 11.4512 31.6741 12.837 28.8002C14.2228 25.9263 17.6548 24.7153 20.5026 26.0955L22.1496 22.68L20.2989 21.7831C19.7074 21.4964 19.4612 20.7801 19.749 20.1832L20.1333 19.3864Z" fill="#FFBA44"/>
<path d="M43.0142 20.3758C43.3031 20.6871 43.2834 21.1762 42.9701 21.4681L41.0141 23.2906C40.7008 23.5825 40.2126 23.5668 39.9237 23.2554L39.156 22.4282L38.7429 21.9831C38.4539 21.6718 38.4737 21.1828 38.787 20.8908L40.743 19.0683C41.0563 18.7764 41.5445 18.7922 41.8334 19.1035L42.2153 19.5149L43.0142 20.3758Z" fill="#FFBA44"/>
<path d="M44.6352 13.7303C45.061 13.744 45.3922 14.1009 45.375 14.5274L45.2674 17.1905C45.2502 17.6171 44.891 17.9517 44.4652 17.938L42.9506 17.8892L42.7248 17.8819C42.299 17.8682 41.9677 17.5113 41.985 17.0847L42.0926 14.4217C42.1098 13.9951 42.469 13.6605 42.8948 13.6742L43.1156 13.6813L44.6352 13.7303Z" fill="#FFBA44"/>
<path d="M28.3792 13.2065C28.805 13.2202 29.1363 13.5771 29.119 14.0037L29.0115 16.6667C28.9942 17.0933 28.635 17.4279 28.2092 17.4142L27.9682 17.4065L26.4688 17.3581C26.043 17.3444 25.7118 16.9875 25.729 16.561L25.8366 13.8979C25.8538 13.4714 26.213 13.1367 26.6388 13.1504L28.1432 13.1989L28.3792 13.2065Z" fill="#FFBA44"/>
<path d="M37.3 24.5765C37.2828 25.0031 36.9236 25.3378 36.4977 25.324L33.8391 25.2384C33.4133 25.2247 33.0821 24.8677 33.0993 24.4412L33.1579 22.992L33.1697 22.6979C33.187 22.2713 33.5462 21.9367 33.972 21.9504L36.6306 22.0361C37.0564 22.0498 37.3876 22.4067 37.3704 22.8332L37.3589 23.1176L37.3 24.5765Z" fill="#FFBA44"/>
<path d="M37.9531 8.41064C37.9359 8.83719 37.5767 9.17185 37.1508 9.15813L34.4922 9.07247C34.0664 9.05875 33.7352 8.70185 33.7524 8.2753L33.7644 7.97969L33.8228 6.53199C33.8401 6.10544 34.1993 5.77077 34.6251 5.78449L37.2837 5.87015C37.7095 5.88387 38.0408 6.24078 38.0235 6.66733L37.9646 8.12479L37.9531 8.41064Z" fill="#FFBA44"/>
<path d="M32.7494 8.73775C33.0384 9.04907 33.0186 9.53808 32.7053 9.82999L30.7493 11.6525C30.436 11.9444 29.9478 11.9287 29.6589 11.6174L29.1863 11.1081L28.4781 10.345C28.1891 10.0337 28.2089 9.54468 28.5222 9.25276L30.4782 7.43026C30.7915 7.13834 31.2797 7.15407 31.5686 7.46539L32.4569 8.4225L32.7494 8.73775Z" fill="#FFBA44"/>
<path d="M30.6158 23.004C30.3025 23.2959 29.8143 23.2802 29.5254 22.9689L27.7215 21.0252C27.4326 20.7139 27.4524 20.2249 27.7656 19.933L28.6074 19.1487L29.0461 18.7399C29.3594 18.448 29.8476 18.4637 30.1365 18.7751L31.0405 19.7491L31.9403 20.7187C32.2293 21.03 32.2095 21.519 31.8962 21.811L31.4563 22.2209L30.6158 23.004Z" fill="#FFBA44"/>
<path d="M42.0582 12.3425C41.7449 12.6344 41.2567 12.6187 40.9677 12.3073L40.0679 11.3378L39.1639 10.3637C38.875 10.0524 38.8947 9.56336 39.208 9.27145L39.6263 8.88174L40.4885 8.07839C40.8018 7.78648 41.29 7.80221 41.5789 8.11353L43.3827 10.0572C43.6716 10.3685 43.6519 10.8575 43.3386 11.1494L42.4777 11.9516L42.0582 12.3425Z" fill="#FFBA44"/>
<path d="M43.1156 13.6813C42.9742 13.0869 42.7618 12.5059 42.4777 11.9516L42.0582 12.3425C41.7449 12.6344 41.2567 12.6187 40.9677 12.3073L40.0679 11.3378L38.2753 13.0081C39.6663 14.507 39.5712 16.8615 38.0628 18.2669C36.5544 19.6724 34.2039 19.5967 32.8128 18.0978L31.0405 19.7491L31.9403 20.7187C32.2293 21.03 32.2095 21.519 31.8962 21.811L31.4563 22.2209C31.9953 22.5498 32.5672 22.8071 33.1579 22.992L33.1697 22.6979C33.187 22.2713 33.5462 21.9367 33.972 21.9504L36.6306 22.0361C37.0564 22.0498 37.3876 22.4067 37.3704 22.8332L37.3589 23.1176C37.9768 22.9647 38.5808 22.7351 39.156 22.4282L38.7429 21.9831C38.4539 21.6718 38.4737 21.1828 38.787 20.8908L40.743 19.0683C41.0563 18.7764 41.5445 18.7922 41.8334 19.1035L42.2153 19.5149C42.5248 18.9975 42.7701 18.4516 42.9506 17.8892L42.7248 17.8819C42.299 17.8682 41.9677 17.5113 41.985 17.0847L42.0926 14.4217C42.1098 13.9951 42.469 13.6605 42.8948 13.6742L43.1156 13.6813Z" fill="#FFBA44"/>
<path d="M39.6263 8.88174C39.0993 8.56075 38.5411 8.30829 37.9646 8.12479L37.9531 8.41064C37.9359 8.83719 37.5767 9.17185 37.1508 9.15813L34.4922 9.07247C34.0664 9.05875 33.7352 8.70185 33.7524 8.2753L33.7644 7.97969C33.3196 8.08753 32.882 8.23507 32.4569 8.4225L32.7494 8.73775C33.0384 9.04907 33.0186 9.53808 32.7053 9.82999L30.7493 11.6525C30.436 11.9444 29.9478 11.9287 29.6589 11.6174L29.1863 11.1081C28.7288 11.759 28.3808 12.4648 28.1432 13.1989L28.3792 13.2065C28.805 13.2202 29.1363 13.5771 29.119 14.0037L29.0115 16.6667C28.9942 17.0933 28.635 17.4279 28.2092 17.4142L27.9682 17.4065C28.109 18.0052 28.3219 18.5904 28.6074 19.1487L29.0461 18.7399C29.3594 18.448 29.8476 18.4637 30.1365 18.7751L31.0405 19.7491L32.8128 18.0978C31.4217 16.5989 31.5169 14.2444 33.0253 12.839C34.5337 11.4335 36.8842 11.5092 38.2753 13.0081L40.0679 11.3378L39.1639 10.3637C38.875 10.0524 38.8947 9.56336 39.208 9.27145L39.6263 8.88174Z" fill="#FFBA44"/>
</svg>
